<mxfile host="Electron" agent="Mozilla/5.0 (Macintosh; Intel Mac OS X 10_15_7) AppleWebKit/537.36 (KHTML, like Gecko) draw.io/26.0.16 Chrome/132.0.6834.196 Electron/34.2.0 Safari/537.36" version="26.0.16">
  <diagram name="Page-1" id="BAsR5TB5KbsM6-LC__w9">
    <mxGraphModel dx="1095" dy="2147" grid="1" gridSize="10" guides="1" tooltips="1" connect="1" arrows="1" fold="1" page="1" pageScale="1" pageWidth="850" pageHeight="1100" math="0" shadow="0">
      <root>
        <mxCell id="0" />
        <mxCell id="1" parent="0" />
        <mxCell id="B4lHt29ajsByaK0nQMdi-75" value="" style="whiteSpace=wrap;html=1;" parent="1" vertex="1">
          <mxGeometry x="250" y="-680" width="580" height="830" as="geometry" />
        </mxCell>
        <mxCell id="B4lHt29ajsByaK0nQMdi-1" value="Manage Events" style="ellipse;whiteSpace=wrap;html=1;" parent="1" vertex="1">
          <mxGeometry x="270" y="-480" width="140" height="40" as="geometry" />
        </mxCell>
        <mxCell id="B4lHt29ajsByaK0nQMdi-2" value="Receive Event Notifications" style="ellipse;whiteSpace=wrap;html=1;" parent="1" vertex="1">
          <mxGeometry x="270" y="-420" width="140" height="40" as="geometry" />
        </mxCell>
        <mxCell id="B4lHt29ajsByaK0nQMdi-3" value="Edit Profile" style="ellipse;whiteSpace=wrap;html=1;" parent="1" vertex="1">
          <mxGeometry x="480" y="-340" width="140" height="40" as="geometry" />
        </mxCell>
        <mxCell id="B4lHt29ajsByaK0nQMdi-4" value="Delete Profile" style="ellipse;whiteSpace=wrap;html=1;" parent="1" vertex="1">
          <mxGeometry x="480" y="-260" width="140" height="40" as="geometry" />
        </mxCell>
        <mxCell id="B4lHt29ajsByaK0nQMdi-5" value="Manage Profile" style="ellipse;whiteSpace=wrap;html=1;" parent="1" vertex="1">
          <mxGeometry x="270" y="-300" width="140" height="40" as="geometry" />
        </mxCell>
        <mxCell id="B4lHt29ajsByaK0nQMdi-6" value="&amp;lt;&amp;lt;include&amp;gt;&amp;gt;" style="html=1;verticalAlign=bottom;labelBackgroundColor=none;endArrow=open;endFill=0;dashed=1;rounded=0;entryX=0;entryY=0.5;entryDx=0;entryDy=0;exitX=1;exitY=0;exitDx=0;exitDy=0;" parent="1" source="B4lHt29ajsByaK0nQMdi-5" target="B4lHt29ajsByaK0nQMdi-3" edge="1">
          <mxGeometry width="160" relative="1" as="geometry">
            <mxPoint x="300" y="-150" as="sourcePoint" />
            <mxPoint x="460" y="-150" as="targetPoint" />
          </mxGeometry>
        </mxCell>
        <mxCell id="B4lHt29ajsByaK0nQMdi-7" value="&amp;lt;&amp;lt;include&amp;gt;&amp;gt;" style="html=1;verticalAlign=bottom;labelBackgroundColor=none;endArrow=open;endFill=0;dashed=1;rounded=0;entryX=0;entryY=0.5;entryDx=0;entryDy=0;exitX=1;exitY=1;exitDx=0;exitDy=0;" parent="1" source="B4lHt29ajsByaK0nQMdi-5" target="B4lHt29ajsByaK0nQMdi-4" edge="1">
          <mxGeometry width="160" relative="1" as="geometry">
            <mxPoint x="399" y="-284" as="sourcePoint" />
            <mxPoint x="500" y="-300" as="targetPoint" />
          </mxGeometry>
        </mxCell>
        <mxCell id="B4lHt29ajsByaK0nQMdi-8" value="Review an Event" style="ellipse;whiteSpace=wrap;html=1;" parent="1" vertex="1">
          <mxGeometry x="270" y="-360" width="140" height="40" as="geometry" />
        </mxCell>
        <mxCell id="B4lHt29ajsByaK0nQMdi-9" value="View Event Details" style="ellipse;whiteSpace=wrap;html=1;" parent="1" vertex="1">
          <mxGeometry x="480" y="-190" width="140" height="40" as="geometry" />
        </mxCell>
        <mxCell id="B4lHt29ajsByaK0nQMdi-10" value="View Event&#39;s Venue Details" style="ellipse;whiteSpace=wrap;html=1;" parent="1" vertex="1">
          <mxGeometry x="480" y="-120" width="140" height="40" as="geometry" />
        </mxCell>
        <mxCell id="B4lHt29ajsByaK0nQMdi-11" value="Filter Available Events" style="ellipse;whiteSpace=wrap;html=1;" parent="1" vertex="1">
          <mxGeometry x="480" y="-45" width="140" height="40" as="geometry" />
        </mxCell>
        <mxCell id="B4lHt29ajsByaK0nQMdi-12" value="View Available Events" style="ellipse;whiteSpace=wrap;html=1;" parent="1" vertex="1">
          <mxGeometry x="270" y="-155" width="140" height="40" as="geometry" />
        </mxCell>
        <mxCell id="B4lHt29ajsByaK0nQMdi-15" value="&amp;lt;&amp;lt;extend&amp;gt;&amp;gt;" style="html=1;verticalAlign=bottom;labelBackgroundColor=none;endArrow=open;endFill=0;dashed=1;rounded=0;entryX=1;entryY=0;entryDx=0;entryDy=0;exitX=0;exitY=0.5;exitDx=0;exitDy=0;" parent="1" source="B4lHt29ajsByaK0nQMdi-9" target="B4lHt29ajsByaK0nQMdi-12" edge="1">
          <mxGeometry width="160" relative="1" as="geometry">
            <mxPoint x="345" y="-255" as="sourcePoint" />
            <mxPoint x="505" y="-255" as="targetPoint" />
          </mxGeometry>
        </mxCell>
        <mxCell id="B4lHt29ajsByaK0nQMdi-16" value="&amp;lt;&amp;lt;extend&amp;gt;&amp;gt;" style="html=1;verticalAlign=bottom;labelBackgroundColor=none;endArrow=open;endFill=0;dashed=1;rounded=0;entryX=1;entryY=1;entryDx=0;entryDy=0;exitX=0;exitY=0.5;exitDx=0;exitDy=0;" parent="1" source="B4lHt29ajsByaK0nQMdi-10" target="B4lHt29ajsByaK0nQMdi-12" edge="1">
          <mxGeometry width="160" relative="1" as="geometry">
            <mxPoint x="505" y="-160" as="sourcePoint" />
            <mxPoint x="399" y="-139" as="targetPoint" />
          </mxGeometry>
        </mxCell>
        <mxCell id="B4lHt29ajsByaK0nQMdi-17" value="Search for Event, Venue, User" style="ellipse;whiteSpace=wrap;html=1;" parent="1" vertex="1">
          <mxGeometry x="275" y="-45" width="140" height="40" as="geometry" />
        </mxCell>
        <mxCell id="B4lHt29ajsByaK0nQMdi-18" value="&amp;lt;&amp;lt;extend&amp;gt;&amp;gt;" style="html=1;verticalAlign=bottom;labelBackgroundColor=none;endArrow=open;endFill=0;dashed=1;rounded=0;exitX=0;exitY=0.5;exitDx=0;exitDy=0;entryX=1;entryY=0.5;entryDx=0;entryDy=0;" parent="1" source="B4lHt29ajsByaK0nQMdi-11" target="B4lHt29ajsByaK0nQMdi-17" edge="1">
          <mxGeometry width="160" relative="1" as="geometry">
            <mxPoint x="345" y="-95" as="sourcePoint" />
            <mxPoint x="505" y="-95" as="targetPoint" />
          </mxGeometry>
        </mxCell>
        <mxCell id="B4lHt29ajsByaK0nQMdi-19" value="Like an Event" style="ellipse;whiteSpace=wrap;html=1;" parent="1" vertex="1">
          <mxGeometry x="275" y="15" width="140" height="40" as="geometry" />
        </mxCell>
        <mxCell id="B4lHt29ajsByaK0nQMdi-20" value="Follow a Venue or a Verified User" style="ellipse;whiteSpace=wrap;html=1;" parent="1" vertex="1">
          <mxGeometry x="275" y="75" width="140" height="40" as="geometry" />
        </mxCell>
        <mxCell id="B4lHt29ajsByaK0nQMdi-66" style="edgeStyle=orthogonalEdgeStyle;rounded=0;orthogonalLoop=1;jettySize=auto;html=1;exitX=0.5;exitY=0.5;exitDx=0;exitDy=0;exitPerimeter=0;entryX=0;entryY=0.5;entryDx=0;entryDy=0;" parent="1" source="B4lHt29ajsByaK0nQMdi-21" target="B4lHt29ajsByaK0nQMdi-2" edge="1">
          <mxGeometry relative="1" as="geometry" />
        </mxCell>
        <mxCell id="B4lHt29ajsByaK0nQMdi-67" style="edgeStyle=orthogonalEdgeStyle;rounded=0;orthogonalLoop=1;jettySize=auto;html=1;exitX=0.5;exitY=0.5;exitDx=0;exitDy=0;exitPerimeter=0;entryX=0;entryY=0.5;entryDx=0;entryDy=0;" parent="1" source="B4lHt29ajsByaK0nQMdi-21" target="B4lHt29ajsByaK0nQMdi-8" edge="1">
          <mxGeometry relative="1" as="geometry" />
        </mxCell>
        <mxCell id="B4lHt29ajsByaK0nQMdi-68" style="edgeStyle=orthogonalEdgeStyle;rounded=0;orthogonalLoop=1;jettySize=auto;html=1;exitX=0.5;exitY=0.5;exitDx=0;exitDy=0;exitPerimeter=0;entryX=0;entryY=0.5;entryDx=0;entryDy=0;" parent="1" source="B4lHt29ajsByaK0nQMdi-21" target="B4lHt29ajsByaK0nQMdi-20" edge="1">
          <mxGeometry relative="1" as="geometry" />
        </mxCell>
        <mxCell id="B4lHt29ajsByaK0nQMdi-69" style="edgeStyle=orthogonalEdgeStyle;rounded=0;orthogonalLoop=1;jettySize=auto;html=1;exitX=0.5;exitY=0.5;exitDx=0;exitDy=0;exitPerimeter=0;entryX=0;entryY=0.5;entryDx=0;entryDy=0;" parent="1" source="B4lHt29ajsByaK0nQMdi-21" target="B4lHt29ajsByaK0nQMdi-19" edge="1">
          <mxGeometry relative="1" as="geometry" />
        </mxCell>
        <mxCell id="B4lHt29ajsByaK0nQMdi-70" style="edgeStyle=orthogonalEdgeStyle;rounded=0;orthogonalLoop=1;jettySize=auto;html=1;exitX=0.5;exitY=0.5;exitDx=0;exitDy=0;exitPerimeter=0;entryX=0;entryY=0.5;entryDx=0;entryDy=0;" parent="1" source="B4lHt29ajsByaK0nQMdi-21" target="B4lHt29ajsByaK0nQMdi-5" edge="1">
          <mxGeometry relative="1" as="geometry">
            <Array as="points">
              <mxPoint x="225" y="-190" />
              <mxPoint x="225" y="-280" />
            </Array>
          </mxGeometry>
        </mxCell>
        <mxCell id="B4lHt29ajsByaK0nQMdi-71" style="edgeStyle=orthogonalEdgeStyle;rounded=0;orthogonalLoop=1;jettySize=auto;html=1;exitX=0.5;exitY=0.5;exitDx=0;exitDy=0;exitPerimeter=0;entryX=0;entryY=0.5;entryDx=0;entryDy=0;" parent="1" source="B4lHt29ajsByaK0nQMdi-21" target="B4lHt29ajsByaK0nQMdi-17" edge="1">
          <mxGeometry relative="1" as="geometry" />
        </mxCell>
        <mxCell id="B4lHt29ajsByaK0nQMdi-72" style="edgeStyle=orthogonalEdgeStyle;rounded=0;orthogonalLoop=1;jettySize=auto;html=1;exitX=0.5;exitY=0.5;exitDx=0;exitDy=0;exitPerimeter=0;" parent="1" source="B4lHt29ajsByaK0nQMdi-21" target="B4lHt29ajsByaK0nQMdi-12" edge="1">
          <mxGeometry relative="1" as="geometry" />
        </mxCell>
        <mxCell id="B4lHt29ajsByaK0nQMdi-21" value="Registered User" style="shape=umlActor;verticalLabelPosition=bottom;verticalAlign=top;html=1;" parent="1" vertex="1">
          <mxGeometry x="150" y="-220" width="30" height="60" as="geometry" />
        </mxCell>
        <mxCell id="B4lHt29ajsByaK0nQMdi-73" style="edgeStyle=orthogonalEdgeStyle;rounded=0;orthogonalLoop=1;jettySize=auto;html=1;exitX=0.5;exitY=0.5;exitDx=0;exitDy=0;exitPerimeter=0;entryX=0.5;entryY=0;entryDx=0;entryDy=0;" parent="1" source="B4lHt29ajsByaK0nQMdi-62" target="B4lHt29ajsByaK0nQMdi-1" edge="1">
          <mxGeometry relative="1" as="geometry">
            <Array as="points">
              <mxPoint x="210" y="-340" />
              <mxPoint x="210" y="-500" />
              <mxPoint x="340" y="-500" />
            </Array>
          </mxGeometry>
        </mxCell>
        <mxCell id="B4lHt29ajsByaK0nQMdi-62" value="Verified User" style="shape=umlActor;verticalLabelPosition=bottom;verticalAlign=top;html=1;outlineConnect=0;" parent="1" vertex="1">
          <mxGeometry x="150" y="-370" width="30" height="60" as="geometry" />
        </mxCell>
        <mxCell id="B4lHt29ajsByaK0nQMdi-74" style="edgeStyle=orthogonalEdgeStyle;rounded=0;orthogonalLoop=1;jettySize=auto;html=1;exitX=0.5;exitY=0.5;exitDx=0;exitDy=0;exitPerimeter=0;entryX=0.5;entryY=0.5;entryDx=0;entryDy=0;entryPerimeter=0;" parent="1" source="B4lHt29ajsByaK0nQMdi-62" target="B4lHt29ajsByaK0nQMdi-21" edge="1">
          <mxGeometry relative="1" as="geometry">
            <Array as="points">
              <mxPoint x="120" y="-340" />
              <mxPoint x="120" y="-190" />
            </Array>
          </mxGeometry>
        </mxCell>
        <mxCell id="2DLOnY1k1wa5mo8io4lp-1" value="Edit Events" style="ellipse;whiteSpace=wrap;html=1;" parent="1" vertex="1">
          <mxGeometry x="480" y="-480" width="140" height="40" as="geometry" />
        </mxCell>
        <mxCell id="2DLOnY1k1wa5mo8io4lp-2" value="Delete Events" style="ellipse;whiteSpace=wrap;html=1;" parent="1" vertex="1">
          <mxGeometry x="480" y="-420" width="140" height="40" as="geometry" />
        </mxCell>
        <mxCell id="2DLOnY1k1wa5mo8io4lp-3" value="&lt;div&gt;Create Events&lt;/div&gt;" style="ellipse;whiteSpace=wrap;html=1;" parent="1" vertex="1">
          <mxGeometry x="480" y="-540" width="140" height="40" as="geometry" />
        </mxCell>
        <mxCell id="2DLOnY1k1wa5mo8io4lp-7" value="&amp;lt;&amp;lt;include&amp;gt;&amp;gt;" style="html=1;verticalAlign=bottom;labelBackgroundColor=none;endArrow=open;endFill=0;dashed=1;rounded=0;entryX=0;entryY=0.5;entryDx=0;entryDy=0;exitX=1;exitY=0.5;exitDx=0;exitDy=0;" parent="1" source="B4lHt29ajsByaK0nQMdi-1" target="2DLOnY1k1wa5mo8io4lp-1" edge="1">
          <mxGeometry width="160" relative="1" as="geometry">
            <mxPoint x="399" y="-284" as="sourcePoint" />
            <mxPoint x="490" y="-310" as="targetPoint" />
          </mxGeometry>
        </mxCell>
        <mxCell id="2DLOnY1k1wa5mo8io4lp-8" value="&amp;lt;&amp;lt;include&amp;gt;&amp;gt;" style="html=1;verticalAlign=bottom;labelBackgroundColor=none;endArrow=open;endFill=0;dashed=1;rounded=0;entryX=0;entryY=0.5;entryDx=0;entryDy=0;exitX=1;exitY=0;exitDx=0;exitDy=0;" parent="1" source="B4lHt29ajsByaK0nQMdi-1" target="2DLOnY1k1wa5mo8io4lp-3" edge="1">
          <mxGeometry width="160" relative="1" as="geometry">
            <mxPoint x="420" y="-450" as="sourcePoint" />
            <mxPoint x="490" y="-450" as="targetPoint" />
          </mxGeometry>
        </mxCell>
        <mxCell id="2DLOnY1k1wa5mo8io4lp-9" value="&amp;lt;&amp;lt;include&amp;gt;&amp;gt;" style="html=1;verticalAlign=bottom;labelBackgroundColor=none;endArrow=open;endFill=0;dashed=1;rounded=0;entryX=0;entryY=0.5;entryDx=0;entryDy=0;exitX=1;exitY=1;exitDx=0;exitDy=0;" parent="1" source="B4lHt29ajsByaK0nQMdi-1" target="2DLOnY1k1wa5mo8io4lp-2" edge="1">
          <mxGeometry width="160" relative="1" as="geometry">
            <mxPoint x="399" y="-464" as="sourcePoint" />
            <mxPoint x="490" y="-510" as="targetPoint" />
          </mxGeometry>
        </mxCell>
      </root>
    </mxGraphModel>
  </diagram>
</mxfile>
